<svg xmlns="http://www.w3.org/2000/svg" viewBox="0 0 32 32">
  <rect width="32" height="32" rx="8" fill="#0f0f1a"/>
  <path d="M16 5C9.925 5 5 9.925 5 16c0 1.94.502 3.762 1.382 5.346L5 27l5.654-1.382A10.953 10.953 0 0016 27c6.075 0 11-4.925 11-11S22.075 5 16 5zm0 20c-1.657 0-3.216-.432-4.572-1.188l-.328-.194-3.4.892.908-3.318-.213-.338A8.957 8.957 0 017 16c0-4.97 4.03-9 9-9s9 4.03 9 9-4.03 9-9 9zm4.93-6.734c-.27-.135-1.598-.788-1.846-.878-.247-.09-.427-.135-.607.135-.18.27-.697.878-.855 1.058-.157.18-.315.203-.585.068-.27-.136-1.14-.42-2.172-1.34-.803-.714-1.345-1.597-1.503-1.867-.157-.27-.017-.416.118-.55.122-.12.27-.315.405-.473.135-.157.18-.27.27-.45.09-.18.045-.338-.023-.473-.067-.135-.607-1.463-.832-2.004-.22-.526-.443-.455-.607-.463-.158-.008-.338-.01-.518-.01-.18 0-.473.068-.72.338-.247.27-.945.923-.945 2.25s.968 2.61 1.103 2.79c.135.18 1.905 2.91 4.614 4.08.644.278 1.148.444 1.54.569.647.206 1.237.177 1.702.107.52-.077 1.598-.653 1.823-1.284.225-.63.225-1.17.158-1.284-.068-.113-.248-.18-.518-.315z" fill="#00e683"/>
</svg>
